<svg xmlns="http://www.w3.org/2000/svg" width="4101" height="1599" viewBox="0 0 4101 1599" version="1.1"><path d="M 1858 665.041 C 1853.325 665.491, 1846.249 666.557, 1842.275 667.410 C 1838.301 668.264, 1832.226 669.911, 1828.775 671.071 C 1825.324 672.231, 1819.153 674.724, 1815.063 676.612 C 1810.973 678.499, 1803.098 683.056, 1797.563 686.738 C 1791.814 690.563, 1783.630 697.306, 1778.473 702.467 C 1773.508 707.435, 1766.611 715.743, 1763.147 720.929 C 1759.682 726.116, 1755.583 732.866, 1754.038 735.929 C 1752.493 738.993, 1749.830 745.465, 1748.121 750.312 C 1746.411 755.158, 1744.073 763.708, 1742.924 769.312 C 1741.379 776.849, 1740.842 783.143, 1740.860 793.500 C 1740.874 801.690, 1741.534 811.135, 1742.449 816.259 C 1743.309 821.076, 1745.346 829.176, 1746.974 834.259 C 1748.602 839.341, 1751.979 847.506, 1754.478 852.402 C 1756.976 857.298, 1761.563 864.835, 1764.670 869.151 C 1767.777 873.466, 1774.185 880.823, 1778.910 885.499 C 1783.634 890.176, 1790.523 896.199, 1794.219 898.884 C 1797.914 901.569, 1804.889 905.804, 1809.719 908.296 C 1814.548 910.788, 1820.975 913.783, 1824 914.952 C 1827.025 916.121, 1834 918.217, 1839.500 919.609 C 1847.221 921.564, 1853.032 922.262, 1865 922.671 C 1876.729 923.073, 1882.932 922.802, 1890.498 921.559 C 1895.996 920.656, 1905.073 918.385, 1910.669 916.512 C 1916.265 914.640, 1923.691 911.684, 1927.171 909.944 C 1930.652 908.204, 1937.213 904.326, 1941.752 901.325 C 1946.291 898.325, 1953.791 892.285, 1958.420 887.904 C 1963.049 883.522, 1969.338 876.671, 1972.395 872.680 C 1975.453 868.688, 1979.998 861.839, 1982.496 857.461 C 1984.994 853.082, 1988.431 845.900, 1990.134 841.500 C 1991.837 837.100, 1994.383 829.225, 1995.791 824 C 1998.141 815.282, 1998.354 812.813, 1998.376 794 C 1998.400 774.079, 1998.310 773.161, 1995.206 761.500 C 1993.118 753.655, 1989.964 745.331, 1986.097 737.460 C 1982.844 730.837, 1977.472 721.764, 1974.160 717.297 C 1970.848 712.830, 1964.767 705.858, 1960.647 701.804 C 1956.526 697.750, 1949.588 691.865, 1945.229 688.727 C 1940.871 685.588, 1933.298 680.976, 1928.402 678.478 C 1923.506 675.979, 1915.434 672.632, 1910.464 671.040 C 1905.494 669.447, 1897.619 667.468, 1892.964 666.641 C 1888.309 665.814, 1880.450 664.932, 1875.500 664.681 C 1870.550 664.430, 1862.675 664.592, 1858 665.041 M 2664.012 763.226 C 2661.918 763.991, 2659.983 765.629, 2659.171 767.325 C 2658.082 769.601, 2658.057 770.724, 2659.047 773.113 C 2659.722 774.743, 2661.225 776.619, 2662.387 777.283 C 2663.962 778.183, 2681.575 778.577, 2731.564 778.833 C 2779.833 779.081, 2799.822 778.856, 2802.887 778.030 C 2806.204 777.137, 2807.438 776.189, 2808.466 773.742 C 2809.221 771.949, 2809.467 769.733, 2809.041 768.581 C 2808.630 767.470, 2807.170 765.723, 2805.796 764.697 C 2803.431 762.931, 2799.710 762.809, 2735.400 762.392 C 2681.986 762.045, 2666.756 762.223, 2664.012 763.226 M 1862.176 773.138 C 1860.348 773.665, 1856.888 776.059, 1854.488 778.459 C 1851.667 781.281, 1849.713 784.353, 1848.959 787.154 C 1848.317 789.536, 1847.993 793.579, 1848.239 796.137 C 1848.485 798.695, 1849.894 802.849, 1851.370 805.368 C 1853.085 808.295, 1855.757 810.949, 1858.777 812.723 C 1862.659 815.006, 1864.657 815.494, 1870 815.466 C 1874.032 815.445, 1877.647 814.816, 1879.521 813.809 C 1881.182 812.916, 1883.811 810.916, 1885.364 809.364 C 1886.916 807.811, 1888.916 805.182, 1889.809 803.521 C 1890.822 801.636, 1891.445 798.026, 1891.466 793.922 C 1891.495 788.334, 1891.047 786.602, 1888.495 782.422 C 1886.238 778.725, 1884.140 776.815, 1880.066 774.750 C 1876.338 772.860, 1873.212 772.028, 1870.071 772.090 C 1867.557 772.140, 1864.004 772.611, 1862.176 773.138" stroke="none" fill="#ec4b3c" fill-rule="evenodd"/><path d="M 1695.412 329.462 C 1689.314 331.821, 1679.864 335.648, 1674.412 337.966 C 1668.960 340.283, 1658.200 345.282, 1650.500 349.073 C 1642.800 352.864, 1630.890 359.169, 1624.034 363.083 C 1617.177 366.997, 1605.702 374.038, 1598.534 378.729 C 1591.365 383.420, 1580.529 390.954, 1574.454 395.472 C 1568.378 399.989, 1557.803 408.350, 1550.954 414.052 C 1544.104 419.754, 1529.932 432.988, 1519.460 443.460 C 1508.988 453.932, 1495.754 468.104, 1490.052 474.954 C 1484.350 481.803, 1475.992 492.378, 1471.478 498.454 C 1466.964 504.529, 1459.797 514.788, 1455.551 521.250 L 1447.832 533 1414.916 533 L 1382 533 1382 618.816 C 1382 677.245, 1381.647 706.526, 1380.894 710.566 C 1380.286 713.830, 1379.023 722.575, 1378.086 730 L 1376.384 743.500 1267.192 743.754 L 1158 744.009 1158 638.504 L 1158 533 1101.500 533 L 1045 533 1045 793.500 L 1045 1054 1101.500 1054 L 1158 1054 1158 946.500 L 1158 839 1266.928 839 L 1375.856 839 1376.517 844.750 C 1376.881 847.913, 1378.146 856.800, 1379.327 864.500 C 1381.384 877.901, 1381.488 882.255, 1381.754 966.250 L 1382.032 1054 1414.787 1054 L 1447.542 1054 1455.521 1066.235 C 1459.910 1072.964, 1467.775 1084.167, 1473 1091.130 C 1478.225 1098.093, 1487.434 1109.575, 1493.464 1116.645 C 1499.494 1123.715, 1511.194 1136.252, 1519.464 1144.504 C 1527.734 1152.756, 1539.675 1163.949, 1546 1169.379 C 1552.325 1174.808, 1564.250 1184.317, 1572.500 1190.511 C 1580.750 1196.704, 1592.696 1205.152, 1599.046 1209.284 C 1605.396 1213.415, 1616.575 1220.234, 1623.888 1224.436 C 1631.201 1228.638, 1641.980 1234.477, 1647.842 1237.412 C 1653.704 1240.348, 1663.900 1245.106, 1670.500 1247.986 C 1677.100 1250.867, 1687.675 1255.197, 1694 1257.610 C 1700.325 1260.022, 1706.018 1261.997, 1706.652 1261.998 C 1707.286 1261.999, 1708.322 1260.537, 1708.955 1258.750 C 1709.588 1256.963, 1712.816 1247.696, 1716.128 1238.159 C 1719.441 1228.621, 1722.004 1220.679, 1721.825 1220.509 C 1721.646 1220.339, 1717 1218.522, 1711.500 1216.470 C 1706 1214.417, 1696.820 1210.742, 1691.100 1208.301 C 1685.380 1205.861, 1674.996 1201.006, 1668.024 1197.512 C 1661.053 1194.019, 1650.882 1188.599, 1645.424 1185.468 C 1639.966 1182.337, 1629.717 1175.980, 1622.649 1171.342 C 1615.581 1166.704, 1604.331 1158.782, 1597.649 1153.738 C 1590.967 1148.693, 1582.125 1141.654, 1578 1138.094 C 1573.875 1134.533, 1565.698 1127.189, 1559.830 1121.773 C 1553.961 1116.357, 1543.953 1106.191, 1537.590 1099.183 C 1531.227 1092.176, 1521.703 1081.055, 1516.426 1074.471 C 1511.148 1067.887, 1501.310 1054.175, 1494.564 1044 C 1487.818 1033.825, 1480.262 1021.900, 1477.774 1017.500 C 1475.285 1013.100, 1469.655 1002.300, 1465.262 993.500 C 1460.869 984.700, 1454.562 970.750, 1451.247 962.500 C 1447.932 954.250, 1443.177 941.200, 1440.680 933.500 C 1438.184 925.800, 1434.771 914.325, 1433.096 908 C 1431.422 901.675, 1428.722 889.750, 1427.097 881.500 C 1425.472 873.250, 1423.191 858.989, 1422.028 849.809 C 1420.866 840.630, 1419.562 824.205, 1419.131 813.309 C 1418.700 802.414, 1418.711 784.725, 1419.155 774 C 1419.599 763.275, 1420.901 747.075, 1422.048 738 C 1423.194 728.925, 1425.250 715.650, 1426.617 708.500 C 1427.983 701.350, 1430.874 688.633, 1433.040 680.240 C 1435.206 671.847, 1439.044 658.797, 1441.568 651.240 C 1444.093 643.683, 1448.438 631.875, 1451.224 625 C 1454.010 618.125, 1459.293 606.200, 1462.965 598.500 C 1466.637 590.800, 1472.695 579.100, 1476.427 572.500 C 1480.160 565.900, 1488.308 552.850, 1494.533 543.500 C 1500.759 534.150, 1509.783 521.550, 1514.587 515.500 C 1519.390 509.450, 1527.724 499.517, 1533.106 493.426 C 1538.488 487.335, 1548.676 476.760, 1555.745 469.926 C 1562.815 463.092, 1572.402 454.300, 1577.050 450.389 C 1581.697 446.478, 1590 439.775, 1595.500 435.493 C 1600.999 431.212, 1612.474 423.096, 1621 417.457 C 1629.525 411.818, 1642.350 403.930, 1649.500 399.929 C 1656.650 395.927, 1668.358 389.862, 1675.518 386.452 C 1682.678 383.042, 1695.053 377.692, 1703.018 374.563 C 1710.983 371.434, 1718.557 368.442, 1719.848 367.914 C 1721.140 367.386, 1721.997 366.401, 1721.753 365.727 C 1721.509 365.052, 1718.232 355.613, 1714.471 344.750 C 1710.711 333.887, 1707.379 325.039, 1707.067 325.086 C 1706.755 325.133, 1701.510 327.102, 1695.412 329.462 M 2024.478 345.250 C 2020.640 356.387, 2017.500 365.875, 2017.500 366.333 C 2017.500 366.790, 2022.675 369.093, 2029 371.450 C 2035.325 373.806, 2045.450 377.908, 2051.500 380.564 C 2057.550 383.221, 2068.536 388.488, 2075.914 392.270 C 2083.292 396.051, 2094.992 402.546, 2101.914 406.703 C 2108.836 410.859, 2119.960 418.050, 2126.634 422.682 C 2133.308 427.315, 2144.108 435.371, 2150.634 440.585 C 2157.160 445.800, 2168.216 455.226, 2175.203 461.532 C 2182.190 467.839, 2193.389 478.961, 2200.091 486.249 C 2206.792 493.537, 2216.927 505.299, 2222.611 512.387 C 2228.296 519.474, 2237.390 531.849, 2242.821 539.887 C 2248.252 547.924, 2255.758 559.675, 2259.500 566 C 2263.242 572.325, 2270.187 585.375, 2274.932 595 C 2279.677 604.625, 2285.965 618.575, 2288.906 626 C 2291.848 633.425, 2296.410 646.025, 2299.046 654 C 2301.681 661.975, 2305.663 675.925, 2307.894 685 C 2310.126 694.075, 2313.074 707.935, 2314.445 715.801 C 2315.817 723.666, 2317.733 736.716, 2318.703 744.801 C 2320.071 756.202, 2320.465 767.239, 2320.462 794 C 2320.458 820.790, 2320.063 831.740, 2318.693 843 C 2317.723 850.975, 2315.771 864.250, 2314.355 872.500 C 2312.939 880.750, 2309.838 895.150, 2307.464 904.500 C 2305.090 913.850, 2301.065 927.772, 2298.520 935.439 C 2295.975 943.105, 2291.621 955.030, 2288.845 961.939 C 2286.068 968.847, 2279.842 982.600, 2275.010 992.500 C 2270.177 1002.400, 2262.292 1017.025, 2257.487 1025 C 2252.682 1032.975, 2245.802 1043.775, 2242.198 1049 C 2238.594 1054.225, 2232.016 1063.225, 2227.580 1069 C 2223.144 1074.775, 2214.973 1084.675, 2209.422 1091 C 2203.870 1097.325, 2193.292 1108.436, 2185.914 1115.691 C 2178.536 1122.945, 2168.450 1132.329, 2163.500 1136.543 C 2158.550 1140.757, 2150.900 1147.001, 2146.500 1150.418 C 2142.100 1153.836, 2133.959 1159.857, 2128.408 1163.798 C 2122.858 1167.738, 2111.331 1175.182, 2102.793 1180.339 C 2094.256 1185.495, 2081.472 1192.660, 2074.385 1196.261 C 2067.298 1199.862, 2055.200 1205.498, 2047.500 1208.787 C 2039.800 1212.075, 2029.900 1216.020, 2025.500 1217.552 C 2021.100 1219.085, 2017.382 1220.419, 2017.237 1220.516 C 2017.092 1220.613, 2020.202 1230.029, 2024.147 1241.439 L 2031.321 1262.186 2034.400 1261.570 C 2036.093 1261.231, 2044.716 1258.059, 2053.562 1254.520 C 2062.408 1250.981, 2075.688 1245.216, 2083.073 1241.710 C 2090.458 1238.203, 2102.735 1231.842, 2110.356 1227.574 C 2117.976 1223.306, 2129.001 1216.787, 2134.856 1213.087 C 2140.710 1209.388, 2150.450 1202.845, 2156.500 1198.548 C 2162.550 1194.250, 2171.547 1187.531, 2176.493 1183.617 C 2181.439 1179.703, 2190.664 1171.964, 2196.993 1166.420 C 2203.322 1160.876, 2213.859 1150.976, 2220.408 1144.420 C 2226.958 1137.864, 2236.671 1127.550, 2241.994 1121.500 C 2247.316 1115.450, 2255.240 1105.995, 2259.603 1100.490 C 2263.967 1094.984, 2271.605 1084.634, 2276.578 1077.490 C 2281.551 1070.345, 2287.102 1062.138, 2288.914 1059.250 L 2292.208 1054 2330.104 1054 L 2368 1054 2368 841 L 2368 628 2459.500 628 L 2551 628 2551 580.500 L 2551 533 2421.250 532.941 L 2291.500 532.882 2284 521.208 C 2279.875 514.787, 2272.274 503.901, 2267.108 497.017 C 2261.942 490.133, 2252.958 478.875, 2247.142 472 C 2241.326 465.125, 2229.353 452.287, 2220.534 443.471 C 2211.715 434.655, 2199.352 423.045, 2193.061 417.670 C 2186.769 412.296, 2176.419 403.940, 2170.061 399.103 C 2163.702 394.265, 2153.088 386.669, 2146.474 382.224 C 2139.860 377.778, 2129.060 370.933, 2122.474 367.013 C 2115.888 363.092, 2102.625 355.907, 2093 351.046 C 2083.375 346.184, 2069.994 339.893, 2063.265 337.066 C 2056.535 334.238, 2046.725 330.366, 2041.465 328.462 C 2036.205 326.558, 2031.801 325, 2031.679 325 C 2031.556 325, 2028.316 334.113, 2024.478 345.250 M 1847 444 L 1847 511 1869.500 511 L 1892 511 1892 444 L 1892 377 1869.500 377 L 1847 377 1847 444 M 1672.493 435.054 C 1665.347 438.933, 1651.850 447.235, 1642.500 453.502 C 1633.150 459.769, 1620.775 468.689, 1615 473.323 C 1609.225 477.958, 1599.027 486.739, 1592.339 492.837 C 1585.650 498.934, 1575.329 509.228, 1569.404 515.711 C 1563.478 522.195, 1554.321 532.900, 1549.056 539.500 C 1543.790 546.100, 1535.392 557.575, 1530.393 565 C 1525.393 572.425, 1518.596 583.225, 1515.287 589 C 1511.977 594.775, 1508.540 600.928, 1507.648 602.674 L 1506.027 605.848 1525.602 616.002 C 1536.368 621.587, 1545.396 625.937, 1545.664 625.669 C 1545.932 625.401, 1548.812 620.397, 1552.065 614.548 C 1555.318 608.699, 1561.197 599.095, 1565.129 593.207 C 1569.062 587.318, 1575.342 578.413, 1579.084 573.418 C 1582.826 568.424, 1590.867 558.664, 1596.954 551.730 C 1603.041 544.797, 1612.854 534.623, 1618.761 529.123 C 1624.667 523.622, 1633.100 516.129, 1637.500 512.472 C 1641.900 508.816, 1650.008 502.565, 1655.519 498.582 C 1661.029 494.599, 1669.804 488.626, 1675.019 485.308 C 1680.233 481.991, 1689.338 476.663, 1695.250 473.470 C 1701.162 470.276, 1706 467.285, 1706 466.822 C 1706 466.359, 1701.723 457.435, 1696.495 446.990 C 1691.267 436.546, 1686.652 428, 1686.238 428 C 1685.824 428, 1679.639 431.174, 1672.493 435.054 M 2043.023 447.603 C 2037.440 458.385, 2033.014 467.332, 2033.186 467.486 C 2033.359 467.640, 2036.650 469.351, 2040.500 471.288 C 2044.350 473.226, 2052.434 477.813, 2058.465 481.481 C 2064.496 485.150, 2073.510 490.995, 2078.496 494.472 C 2083.482 497.948, 2091.373 503.790, 2096.031 507.454 C 2100.689 511.118, 2109.939 519.037, 2116.587 525.051 C 2123.235 531.065, 2133.293 541.137, 2138.939 547.432 C 2144.585 553.727, 2152.548 563.068, 2156.634 568.189 C 2160.720 573.310, 2167.561 582.675, 2171.837 589 C 2176.112 595.325, 2182.909 606.237, 2186.942 613.250 C 2190.975 620.263, 2194.426 626, 2194.610 626 C 2194.794 626, 2203.329 621.641, 2213.575 616.314 C 2223.822 610.987, 2232.405 606.109, 2232.649 605.473 C 2232.892 604.838, 2230.214 599.184, 2226.697 592.909 C 2223.179 586.634, 2217.713 577.495, 2214.548 572.600 C 2211.384 567.706, 2205.837 559.606, 2202.223 554.600 C 2198.608 549.595, 2192.757 541.900, 2189.221 537.500 C 2185.685 533.100, 2177.776 523.943, 2171.646 517.152 C 2165.516 510.360, 2155.325 500.045, 2149 494.228 C 2142.675 488.412, 2132.055 479.300, 2125.401 473.981 C 2118.746 468.661, 2109.071 461.368, 2103.901 457.774 C 2098.730 454.180, 2089.775 448.332, 2084 444.779 C 2078.225 441.226, 2069.185 435.997, 2063.910 433.159 C 2058.636 430.322, 2054.062 428, 2053.746 428 C 2053.431 428, 2048.605 436.821, 2043.023 447.603 M 725.500 522.594 C 722.750 522.805, 715.325 523.459, 709 524.048 C 702.675 524.638, 690.908 526.432, 682.851 528.036 C 674.794 529.641, 662.644 532.763, 655.851 534.975 C 649.058 537.187, 637.200 542.144, 629.500 545.991 C 621.800 549.839, 611.317 555.991, 606.204 559.663 C 601.091 563.335, 593.441 569.755, 589.204 573.929 C 584.967 578.103, 579.123 584.665, 576.218 588.509 C 573.313 592.354, 568.483 600.357, 565.486 606.294 C 562.489 612.231, 558.926 620.781, 557.567 625.294 C 556.208 629.807, 554.303 637.550, 553.334 642.500 C 552.022 649.201, 551.576 656.354, 551.592 670.500 C 551.607 684.380, 552.082 691.925, 553.354 698.500 C 554.313 703.450, 556.184 711.100, 557.513 715.500 C 558.842 719.900, 561.693 727.100, 563.849 731.500 C 566.005 735.900, 570.004 742.650, 572.736 746.500 C 575.468 750.350, 581.030 756.826, 585.097 760.892 C 589.163 764.957, 596.018 770.969, 600.330 774.251 C 604.642 777.534, 612.745 783.121, 618.335 786.668 C 623.926 790.215, 635.025 796.410, 643 800.436 C 650.975 804.463, 665.375 810.917, 675 814.779 C 684.625 818.641, 698.350 823.920, 705.500 826.510 C 712.650 829.100, 730.003 835.174, 744.062 840.008 C 758.121 844.842, 773.560 850.427, 778.371 852.418 C 783.182 854.410, 791.254 858.116, 796.309 860.654 C 801.364 863.192, 807.975 866.950, 811 869.006 C 814.025 871.062, 818.532 874.939, 821.016 877.622 C 823.499 880.305, 826.985 884.786, 828.761 887.581 C 830.538 890.375, 832.886 895.261, 833.979 898.438 C 835.072 901.616, 836.255 907.034, 836.608 910.480 C 836.969 914, 836.732 919.757, 836.067 923.622 C 835.416 927.405, 833.804 932.874, 832.485 935.776 C 831.166 938.678, 828.611 943.107, 826.807 945.619 C 825.004 948.130, 820.822 952.237, 817.514 954.745 C 814.206 957.252, 807.768 961.067, 803.206 963.221 C 798.644 965.375, 790.586 968.235, 785.299 969.576 C 780.013 970.917, 770.395 972.497, 763.928 973.087 C 755.446 973.861, 749.080 973.852, 741.088 973.053 C 734.994 972.444, 725.843 970.862, 720.754 969.538 C 715.664 968.214, 708.319 965.775, 704.431 964.119 C 700.543 962.463, 694.018 959.198, 689.931 956.864 C 685.522 954.346, 679.428 949.545, 674.948 945.060 C 669.521 939.628, 666.218 935.213, 663.213 929.376 C 660.912 924.908, 658.126 917.483, 657.022 912.876 C 655.918 908.269, 655.011 903.263, 655.007 901.750 L 655 899 597.500 899 C 543.397 899, 540.001 899.103, 540.020 900.750 C 540.030 901.712, 540.676 907.286, 541.455 913.136 C 542.234 918.986, 543.769 927.536, 544.866 932.136 C 545.963 936.736, 548.294 944.550, 550.046 949.500 C 551.797 954.450, 554.802 961.650, 556.724 965.500 C 558.645 969.350, 562.604 976.100, 565.521 980.500 C 568.438 984.900, 573.725 991.835, 577.271 995.911 C 580.817 999.987, 587.269 1006.428, 591.609 1010.225 C 595.949 1014.021, 604.450 1020.442, 610.500 1024.494 C 616.550 1028.546, 626.322 1034.328, 632.215 1037.343 C 638.109 1040.358, 647.559 1044.612, 653.215 1046.797 C 658.872 1048.982, 668.450 1052.159, 674.500 1053.858 C 680.550 1055.556, 690 1057.841, 695.500 1058.936 C 701 1060.030, 712.475 1061.664, 721 1062.567 C 732.857 1063.824, 742.140 1064.085, 760.500 1063.679 C 777.144 1063.311, 788.532 1062.531, 797.656 1061.134 C 804.892 1060.026, 814.792 1058.180, 819.656 1057.031 C 824.520 1055.883, 832.261 1053.802, 836.857 1052.407 C 841.453 1051.012, 849.936 1047.854, 855.707 1045.389 C 861.479 1042.923, 870.280 1038.607, 875.266 1035.796 C 880.252 1032.985, 888.645 1027.434, 893.916 1023.461 C 899.187 1019.487, 907.354 1012.235, 912.064 1007.345 C 916.775 1002.456, 922.944 995.157, 925.774 991.127 C 928.605 987.097, 932.920 979.682, 935.364 974.650 C 937.808 969.617, 940.972 961.900, 942.395 957.500 C 943.819 953.100, 945.656 946.239, 946.477 942.253 C 947.299 938.267, 948.471 929.717, 949.082 923.253 C 949.713 916.575, 949.898 906.750, 949.512 900.500 C 949.138 894.450, 948.181 885.675, 947.384 881 C 946.587 876.325, 944.781 868.675, 943.371 864 C 941.961 859.325, 938.449 850.526, 935.566 844.446 C 932.684 838.366, 927.932 829.816, 925.007 825.446 C 922.082 821.076, 916.043 813.876, 911.586 809.446 C 907.042 804.930, 898.656 798.203, 892.492 794.131 C 886.446 790.138, 874.021 783.129, 864.880 778.556 C 855.738 773.984, 841.113 767.440, 832.380 764.015 C 823.646 760.590, 796.925 751.272, 773 743.309 C 749.075 735.346, 723.875 726.616, 717 723.909 C 710.125 721.202, 701.479 717.303, 697.787 715.244 C 694.095 713.185, 687.236 708.463, 682.547 704.750 C 677.857 701.038, 672.468 695.863, 670.572 693.250 C 668.676 690.638, 666.432 686.025, 665.587 683 C 664.741 679.975, 663.771 674.350, 663.431 670.500 C 663.012 665.750, 663.323 661.097, 664.400 656.024 C 665.273 651.912, 667.181 646.106, 668.641 643.121 C 670.102 640.137, 673.930 635.102, 677.149 631.933 C 681.362 627.784, 685.871 624.747, 693.251 621.085 C 698.888 618.287, 708 614.793, 713.500 613.318 C 722.642 610.868, 725.131 610.634, 742.500 610.591 C 757.365 610.555, 762.991 610.923, 768.353 612.282 C 772.123 613.237, 778.198 615.202, 781.853 616.647 C 785.509 618.093, 791.650 621.082, 795.500 623.290 C 799.674 625.684, 805.734 630.574, 810.509 635.402 C 816.319 641.276, 819.540 645.560, 822.236 651 C 824.281 655.125, 826.854 661.875, 827.953 666 C 829.053 670.125, 830.197 674.737, 830.495 676.250 L 831.038 679 886.648 679 L 942.258 679 941.555 670.750 C 941.168 666.212, 939.947 657.775, 938.841 652 C 937.736 646.225, 935.475 637.265, 933.818 632.090 C 932.160 626.914, 929.280 619.336, 927.418 615.250 C 925.556 611.164, 921.050 603.249, 917.405 597.661 C 912.964 590.852, 907.268 584.019, 900.139 576.949 C 893.363 570.229, 885.506 563.728, 878.500 559.046 C 872.450 555.003, 861.746 548.886, 854.712 545.452 C 847.679 542.019, 836.429 537.397, 829.712 535.181 C 822.996 532.965, 812.325 530.009, 806 528.612 C 799.675 527.214, 788.875 525.369, 782 524.510 C 775.125 523.652, 760.725 522.783, 750 522.580 C 739.275 522.377, 728.250 522.383, 725.500 522.594 M 2642 639.361 L 2642 745.721 2636.750 746.352 C 2633.863 746.699, 2618.563 746.987, 2602.750 746.991 L 2574 747 2574 758 L 2574 769 2600.500 769 L 2627 769 2627 801.313 L 2627 833.626 2629.924 836.427 C 2631.958 838.376, 2634.240 839.385, 2637.424 839.744 L 2642 840.260 2642 947.130 L 2642 1054 2831.629 1054 L 3021.258 1054 3020.546 1045.835 C 3020.154 1041.344, 3018.971 1034.257, 3017.916 1030.085 C 3016.861 1025.913, 3013.818 1018, 3011.154 1012.500 C 3008.490 1007, 3003.549 999.030, 3000.175 994.790 C 2996.800 990.549, 2990.768 984.378, 2986.769 981.076 C 2982.771 977.774, 2975.126 972.784, 2969.780 969.986 C 2964.298 967.118, 2955.796 963.729, 2950.280 962.214 L 2940.500 959.528 2847.750 959.229 L 2755 958.931 2755 899.466 L 2755 840 2793.250 839.996 C 2829.399 839.993, 2831.676 839.885, 2834.696 838.044 C 2836.807 836.756, 2838.268 834.808, 2839.004 832.298 C 2839.760 829.718, 2840.018 816.428, 2839.808 790.854 C 2839.513 754.855, 2839.412 753.110, 2837.500 750.966 C 2836.400 749.733, 2834.052 748.111, 2832.282 747.362 C 2829.762 746.295, 2821.040 746, 2792.032 746 L 2755 746 2755 687.040 L 2755 628.081 2844.250 627.739 C 2924.189 627.433, 2934.153 627.222, 2939.755 625.709 C 2943.196 624.781, 2949.590 622.640, 2953.964 620.954 C 2958.338 619.267, 2965.403 615.611, 2969.663 612.830 C 2973.924 610.049, 2980.287 605.012, 2983.804 601.637 C 2987.322 598.261, 2992.231 592.800, 2994.714 589.500 C 2997.197 586.200, 3000.975 580.027, 3003.109 575.782 C 3005.244 571.537, 3008.145 564.112, 3009.557 559.282 C 3010.968 554.452, 3012.387 546.563, 3012.709 541.750 L 3013.296 533 2827.648 533 L 2642 533 2642 639.361 M 3130 793.500 L 3130 1054 3184 1054 L 3238 1054 3238 837.437 L 3238 620.874 3305.750 621.267 C 3362.921 621.599, 3374.519 621.905, 3380.024 623.231 C 3383.613 624.094, 3390.138 626.189, 3394.524 627.885 C 3398.911 629.581, 3405.425 632.861, 3409 635.173 C 3412.575 637.486, 3419.365 643.230, 3424.088 647.939 C 3429.065 652.900, 3434.403 659.444, 3436.781 663.500 C 3439.038 667.350, 3442.102 674.100, 3443.589 678.500 C 3445.811 685.073, 3446.379 688.843, 3446.773 699.633 C 3447.141 709.702, 3446.856 714.601, 3445.549 720.633 C 3444.612 724.960, 3441.882 732.550, 3439.481 737.500 C 3437.081 742.450, 3432.843 749.247, 3430.063 752.605 C 3427.283 755.962, 3421.826 761.245, 3417.936 764.344 C 3414.046 767.443, 3408.024 771.566, 3404.553 773.508 C 3401.082 775.449, 3394.925 778.168, 3390.871 779.551 C 3386.817 780.933, 3379.729 782.725, 3375.119 783.532 C 3369.200 784.569, 3359.138 785, 3340.869 785 L 3315 785 3315 827.469 L 3315 869.938 3326.936 870.219 L 3338.873 870.500 3398.294 962 L 3457.716 1053.500 3518.858 1053.758 C 3552.486 1053.899, 3580 1053.762, 3580 1053.452 C 3580 1053.143, 3552.029 1012.302, 3517.842 962.695 C 3483.654 913.088, 3453.678 869.671, 3451.228 866.214 L 3446.773 859.928 3451.137 858.254 C 3453.536 857.334, 3460.225 854.228, 3466 851.352 C 3471.775 848.476, 3479.650 844.015, 3483.500 841.438 C 3487.350 838.861, 3493.498 834.314, 3497.163 831.334 C 3500.828 828.354, 3507.039 822.533, 3510.965 818.400 C 3514.891 814.267, 3520.998 806.974, 3524.535 802.193 C 3528.073 797.412, 3533.660 788.293, 3536.952 781.928 C 3540.243 775.564, 3544.500 765.664, 3546.412 759.928 C 3548.323 754.193, 3550.909 744.775, 3552.159 739 C 3554.186 729.627, 3554.431 725.762, 3554.433 703 C 3554.436 679.090, 3554.268 676.714, 3551.742 664.898 C 3550.261 657.968, 3547.670 648.392, 3545.986 643.619 C 3544.301 638.847, 3541.440 631.692, 3539.628 627.721 C 3537.816 623.749, 3533.821 616.450, 3530.750 611.500 C 3527.680 606.550, 3521.461 598.065, 3516.929 592.645 C 3512.398 587.224, 3504.598 579.205, 3499.595 574.823 C 3494.593 570.441, 3486.474 564.149, 3481.553 560.840 C 3476.633 557.532, 3469.099 553.061, 3464.811 550.905 C 3460.524 548.749, 3453.593 545.626, 3449.409 543.964 C 3445.225 542.302, 3437.522 539.830, 3432.291 538.471 C 3427.059 537.112, 3417.631 535.325, 3411.338 534.500 C 3401.657 533.231, 3379.141 533, 3264.949 533 L 3130 533 3130 793.500 M 1853.500 536.995 C 1846.900 537.406, 1836.628 538.509, 1830.673 539.445 C 1824.718 540.382, 1814.593 542.436, 1808.173 544.012 C 1801.753 545.587, 1791.100 548.723, 1784.500 550.982 C 1777.900 553.241, 1765.300 558.633, 1756.500 562.965 C 1747.700 567.297, 1735.100 574.439, 1728.500 578.835 C 1721.900 583.231, 1712.675 589.893, 1708 593.638 C 1703.325 597.384, 1694.313 605.635, 1687.974 611.974 C 1681.635 618.313, 1673.384 627.325, 1669.638 632 C 1665.893 636.675, 1659.231 645.900, 1654.835 652.500 C 1650.439 659.100, 1643.295 671.700, 1638.960 680.500 C 1634.625 689.300, 1629.098 702.350, 1626.677 709.500 C 1624.256 716.650, 1621.102 727.450, 1619.667 733.500 C 1618.233 739.550, 1616.359 748.887, 1615.503 754.248 C 1614.647 759.609, 1613.579 770.725, 1613.131 778.950 C 1612.682 787.175, 1612.652 800.113, 1613.064 807.702 C 1613.476 815.291, 1614.335 825.325, 1614.973 830 C 1615.611 834.675, 1617.048 842.775, 1618.168 848 C 1619.287 853.225, 1621.767 862.675, 1623.680 869 C 1625.592 875.325, 1629.176 885.450, 1631.644 891.500 C 1634.111 897.550, 1638.618 907.225, 1641.657 913 C 1644.697 918.775, 1650.437 928.450, 1654.412 934.500 C 1658.386 940.550, 1665.267 950, 1669.701 955.500 C 1674.135 961, 1682.429 970.166, 1688.132 975.868 C 1693.834 981.571, 1702.875 989.761, 1708.223 994.069 C 1713.570 998.377, 1721.220 1004.110, 1725.223 1006.809 C 1729.225 1009.508, 1737.225 1014.434, 1743 1017.755 C 1748.775 1021.076, 1758.145 1025.878, 1763.823 1028.426 C 1769.500 1030.975, 1779.850 1035.009, 1786.823 1037.392 C 1793.795 1039.775, 1804.450 1042.890, 1810.500 1044.313 C 1816.550 1045.737, 1826.225 1047.634, 1832 1048.528 C 1837.775 1049.422, 1851.537 1050.403, 1862.581 1050.708 C 1875.045 1051.053, 1887.184 1050.811, 1894.581 1050.072 C 1901.137 1049.416, 1913.143 1047.558, 1921.263 1045.941 C 1929.383 1044.324, 1942.797 1040.769, 1951.072 1038.041 C 1959.348 1035.313, 1972.504 1029.993, 1980.309 1026.219 C 1988.114 1022.446, 1998.775 1016.752, 2004 1013.566 C 2009.225 1010.381, 2018.675 1003.912, 2025 999.192 C 2031.572 994.287, 2042.951 984.158, 2051.555 975.555 C 2060.158 966.951, 2070.287 955.572, 2075.192 949 C 2079.912 942.675, 2086.381 933.225, 2089.566 928 C 2092.752 922.775, 2098.395 912.200, 2102.107 904.500 C 2105.819 896.800, 2110.673 885.209, 2112.893 878.742 C 2115.113 872.275, 2118.273 861.475, 2119.917 854.742 C 2121.560 848.009, 2123.713 837.325, 2124.702 831 C 2126.111 821.988, 2126.489 813.766, 2126.451 793 C 2126.410 770.300, 2126.084 764.650, 2124.180 753.597 C 2122.958 746.501, 2120.836 736.272, 2119.466 730.867 C 2118.096 725.462, 2115.579 716.873, 2113.873 711.780 C 2112.166 706.687, 2108.549 697.340, 2105.834 691.010 C 2103.119 684.679, 2098.405 675.034, 2095.357 669.575 C 2092.310 664.117, 2087.211 655.776, 2084.027 651.040 C 2080.843 646.304, 2075.496 638.981, 2072.146 634.765 C 2068.796 630.549, 2062.866 623.590, 2058.967 619.300 C 2055.068 615.010, 2047.968 607.941, 2043.189 603.592 C 2038.410 599.242, 2029.550 591.998, 2023.500 587.493 C 2017.450 582.988, 2008 576.595, 2002.500 573.286 C 1997 569.977, 1989.205 565.612, 1985.178 563.586 C 1981.150 561.560, 1973.050 557.934, 1967.178 555.529 C 1961.305 553.125, 1951.160 549.539, 1944.633 547.560 C 1938.105 545.582, 1927.305 542.870, 1920.633 541.534 C 1913.960 540.197, 1904 538.660, 1898.500 538.117 C 1893 537.574, 1883.325 536.931, 1877 536.688 C 1870.675 536.445, 1860.100 536.583, 1853.500 536.995 M 1853.500 629.693 C 1851.300 629.890, 1844.749 630.936, 1838.943 632.018 C 1833.137 633.101, 1824.137 635.364, 1818.943 637.047 C 1813.749 638.731, 1803.650 643.007, 1796.500 646.550 C 1789.350 650.093, 1779.233 656.031, 1774.017 659.746 C 1768.802 663.461, 1759.577 671.458, 1753.517 677.517 C 1747.458 683.577, 1739.480 692.802, 1735.790 698.017 C 1732.099 703.233, 1726.567 712.320, 1723.496 718.212 C 1720.426 724.104, 1715.953 734.904, 1713.557 742.212 C 1711.160 749.520, 1708.385 760, 1707.389 765.500 C 1706.068 772.794, 1705.577 780.507, 1705.575 794 C 1705.572 807.055, 1706.063 815.149, 1707.244 821.500 C 1708.164 826.450, 1710.087 834.550, 1711.518 839.500 C 1712.949 844.450, 1716.029 853.015, 1718.362 858.532 C 1720.696 864.050, 1724.811 872.272, 1727.506 876.804 C 1730.202 881.335, 1735.303 888.901, 1738.842 893.617 C 1742.381 898.333, 1748.997 905.911, 1753.543 910.457 C 1758.089 915.003, 1765.701 921.645, 1770.459 925.215 C 1775.217 928.786, 1783.023 933.938, 1787.805 936.665 C 1792.587 939.391, 1800.888 943.501, 1806.251 945.798 C 1811.614 948.095, 1821.064 951.301, 1827.251 952.922 C 1833.438 954.544, 1841.650 956.329, 1845.500 956.889 C 1849.350 957.449, 1857 958.203, 1862.500 958.565 C 1868.191 958.939, 1877.456 958.721, 1884 958.060 C 1890.325 957.420, 1899.734 955.980, 1904.908 954.860 C 1910.083 953.739, 1918.817 951.256, 1924.317 949.341 C 1929.817 947.427, 1938.288 943.866, 1943.142 941.429 C 1947.995 938.992, 1954.561 935.354, 1957.733 933.345 C 1960.905 931.336, 1967.100 926.876, 1971.500 923.434 C 1975.900 919.992, 1983.178 913.424, 1987.674 908.838 C 1992.169 904.252, 1999.041 896.225, 2002.945 891 C 2006.848 885.775, 2012.906 875.853, 2016.406 868.951 C 2019.906 862.049, 2024.359 851.474, 2026.301 845.451 C 2028.243 839.428, 2030.545 831.035, 2031.415 826.800 C 2032.285 822.565, 2033.516 813.459, 2034.150 806.565 C 2035.026 797.038, 2035.021 790.967, 2034.129 781.265 C 2033.482 774.244, 2032.069 764.293, 2030.988 759.151 C 2029.907 754.009, 2027.624 745.684, 2025.915 740.651 C 2024.205 735.618, 2020.450 726.752, 2017.568 720.949 C 2014.687 715.146, 2009.988 706.928, 2007.126 702.687 C 2004.264 698.446, 1998.615 691.044, 1994.571 686.238 C 1990.527 681.432, 1984.357 674.996, 1980.860 671.936 C 1977.362 668.876, 1971.125 663.860, 1967 660.790 C 1962.875 657.721, 1955.455 652.904, 1950.512 650.087 C 1945.568 647.270, 1936.943 643.174, 1931.344 640.985 C 1925.745 638.796, 1916.965 635.876, 1911.832 634.496 C 1906.700 633.115, 1897.414 631.314, 1891.199 630.493 C 1884.983 629.672, 1874.858 629.076, 1868.699 629.168 C 1862.539 629.261, 1855.700 629.497, 1853.500 629.693 M 2856 792.988 L 2856 829 2859.355 829 C 2861.200 829, 2868.463 828.533, 2875.495 827.962 C 2882.527 827.391, 2894.405 825.793, 2901.890 824.411 C 2909.376 823.029, 2919.425 820.584, 2924.223 818.978 C 2929.020 817.371, 2935.545 814.736, 2938.723 813.122 C 2941.900 811.508, 2946.427 808.782, 2948.783 807.064 C 2951.139 805.345, 2953.950 802.491, 2955.029 800.720 C 2956.135 798.906, 2956.994 795.708, 2956.996 793.398 C 2956.999 790.782, 2956.176 788.073, 2954.726 785.922 C 2953.476 784.066, 2950.354 780.962, 2947.788 779.024 C 2945.223 777.086, 2938.709 773.599, 2933.312 771.276 C 2927.915 768.953, 2920.125 766.146, 2916 765.038 C 2911.875 763.931, 2902.650 762.136, 2895.500 761.051 C 2888.350 759.966, 2878.225 758.819, 2873 758.501 C 2867.775 758.183, 2861.813 757.710, 2859.750 757.450 L 2856 756.976 2856 792.988 M 2664.012 763.226 C 2661.918 763.991, 2659.983 765.629, 2659.171 767.325 C 2658.082 769.601, 2658.057 770.724, 2659.047 773.113 C 2659.722 774.743, 2661.225 776.619, 2662.387 777.283 C 2663.962 778.183, 2681.575 778.577, 2731.564 778.833 C 2779.833 779.081, 2799.822 778.856, 2802.887 778.030 C 2806.204 777.137, 2807.438 776.189, 2808.466 773.742 C 2809.221 771.949, 2809.467 769.733, 2809.041 768.581 C 2808.630 767.470, 2807.170 765.723, 2805.796 764.697 C 2803.431 762.931, 2799.710 762.809, 2735.400 762.392 C 2681.986 762.045, 2666.756 762.223, 2664.012 763.226 M 1453 793.500 L 1453 816 1520 816 L 1587 816 1587 793.500 L 1587 771 1520 771 L 1453 771 1453 793.500 M 2153 793.500 L 2153 816 2220 816 L 2287 816 2287 793.500 L 2287 771 2220 771 L 2153 771 2153 793.500 M 1862.176 773.138 C 1860.348 773.665, 1856.888 776.059, 1854.488 778.459 C 1851.667 781.281, 1849.713 784.353, 1848.959 787.154 C 1848.317 789.536, 1847.993 793.579, 1848.239 796.137 C 1848.485 798.695, 1849.894 802.849, 1851.370 805.368 C 1853.085 808.295, 1855.757 810.949, 1858.777 812.723 C 1862.659 815.006, 1864.657 815.494, 1870 815.466 C 1874.032 815.445, 1877.647 814.816, 1879.521 813.809 C 1881.182 812.916, 1883.811 810.916, 1885.364 809.364 C 1886.916 807.811, 1888.916 805.182, 1889.809 803.521 C 1890.822 801.636, 1891.445 798.026, 1891.466 793.922 C 1891.495 788.334, 1891.047 786.602, 1888.495 782.422 C 1886.238 778.725, 1884.140 776.815, 1880.066 774.750 C 1876.338 772.860, 1873.212 772.028, 1870.071 772.090 C 1867.557 772.140, 1864.004 772.611, 1862.176 773.138 M 2522 792 L 2522 803 2567 803 L 2612 803 2612 792 L 2612 781 2567 781 L 2522 781 2522 792 M 2413 825 L 2413 836 2507.500 836 L 2602 836 2602 825 L 2602 814 2507.500 814 L 2413 814 2413 825 M 1520.227 962.698 L 1500.955 972.233 1506.854 983.463 C 1510.098 989.640, 1515.999 1000.050, 1519.966 1006.597 C 1523.934 1013.144, 1531.363 1024.350, 1536.476 1031.500 C 1541.589 1038.650, 1550.539 1050.196, 1556.367 1057.159 C 1562.194 1064.121, 1572.584 1075.461, 1579.456 1082.357 C 1586.327 1089.254, 1596.597 1098.886, 1602.276 1103.761 C 1607.955 1108.637, 1617.079 1116.007, 1622.551 1120.141 C 1628.023 1124.274, 1637.225 1130.801, 1643 1134.645 C 1648.775 1138.489, 1657.325 1143.900, 1662 1146.670 C 1666.675 1149.439, 1673.930 1153.572, 1678.123 1155.853 C 1682.316 1158.134, 1686.026 1160, 1686.368 1160 C 1686.710 1160, 1691.267 1151.454, 1696.495 1141.010 C 1701.723 1130.565, 1706 1121.602, 1706 1121.091 C 1706 1120.580, 1702.063 1118.028, 1697.250 1115.419 C 1692.438 1112.810, 1683.120 1107.343, 1676.545 1103.270 C 1669.970 1099.197, 1658.720 1091.452, 1651.545 1086.059 C 1644.370 1080.665, 1634.464 1072.718, 1629.531 1068.398 C 1624.598 1064.078, 1616.303 1056.259, 1611.099 1051.022 C 1605.894 1045.785, 1597.778 1037, 1593.063 1031.500 C 1588.348 1026, 1581.189 1017.100, 1577.155 1011.723 C 1573.120 1006.345, 1566.147 996.171, 1561.659 989.114 C 1557.172 982.057, 1550.800 971.052, 1547.500 964.658 C 1544.200 958.264, 1541.050 953.062, 1540.500 953.098 C 1539.950 953.134, 1530.827 957.454, 1520.227 962.698 M 2191.500 966.195 C 2187.650 973.417, 2180.151 985.936, 2174.836 994.013 C 2169.521 1002.091, 2160.565 1014.505, 2154.934 1021.600 C 2149.303 1028.695, 2137.001 1042.194, 2127.598 1051.598 C 2118.194 1061.001, 2104.730 1073.275, 2097.677 1078.872 C 2090.625 1084.469, 2078.475 1093.256, 2070.677 1098.398 C 2062.880 1103.539, 2051.260 1110.603, 2044.856 1114.095 L 2033.213 1120.444 2043.143 1140.286 L 2053.074 1160.129 2064.523 1154.115 C 2070.820 1150.807, 2081.844 1144.366, 2089.021 1139.801 C 2096.197 1135.235, 2107.203 1127.675, 2113.477 1123 C 2119.751 1118.325, 2129.807 1110.319, 2135.823 1105.208 C 2141.839 1100.097, 2153.690 1088.847, 2162.157 1080.208 C 2170.625 1071.569, 2181.417 1059.775, 2186.140 1054 C 2190.862 1048.225, 2197.948 1039.046, 2201.885 1033.603 C 2205.822 1028.159, 2212.348 1018.484, 2216.386 1012.103 C 2220.424 1005.721, 2226.939 994.545, 2230.864 987.266 C 2234.789 979.987, 2238 973.550, 2238 972.963 C 2238 972.375, 2229.338 967.644, 2218.750 962.450 C 2208.162 957.256, 2199.275 953.020, 2199 953.035 C 2198.725 953.051, 2195.350 958.973, 2191.500 966.195 M 1847 1144 L 1847 1211 1869.500 1211 L 1892 1211 1892 1144 L 1892 1077 1869.500 1077 L 1847 1077 1847 1144" stroke="none" fill="#040404" fill-rule="evenodd"/></svg>