<svg xmlns="http://www.w3.org/2000/svg" width="4101" height="1599" viewBox="0 0 4101 1599" version="1.1"><path d="M 1858 665.041 C 1853.325 665.491, 1846.249 666.557, 1842.275 667.410 C 1838.301 668.264, 1832.226 669.911, 1828.775 671.071 C 1825.324 672.231, 1819.153 674.724, 1815.063 676.612 C 1810.973 678.499, 1803.098 683.056, 1797.563 686.738 C 1791.814 690.563, 1783.630 697.306, 1778.473 702.467 C 1773.508 707.435, 1766.611 715.743, 1763.147 720.929 C 1759.682 726.116, 1755.583 732.866, 1754.038 735.929 C 1752.493 738.993, 1749.830 745.465, 1748.121 750.312 C 1746.411 755.158, 1744.073 763.708, 1742.924 769.312 C 1741.379 776.849, 1740.842 783.143, 1740.860 793.500 C 1740.874 801.690, 1741.534 811.135, 1742.449 816.259 C 1743.309 821.076, 1745.346 829.176, 1746.974 834.259 C 1748.602 839.341, 1751.979 847.506, 1754.478 852.402 C 1756.976 857.298, 1761.563 864.835, 1764.670 869.151 C 1767.777 873.466, 1774.185 880.823, 1778.910 885.499 C 1783.634 890.176, 1790.523 896.199, 1794.219 898.884 C 1797.914 901.569, 1804.889 905.804, 1809.719 908.296 C 1814.548 910.788, 1820.975 913.783, 1824 914.952 C 1827.025 916.121, 1834 918.217, 1839.500 919.609 C 1847.221 921.564, 1853.032 922.262, 1865 922.671 C 1876.729 923.073, 1882.932 922.802, 1890.498 921.559 C 1895.996 920.656, 1905.073 918.385, 1910.669 916.512 C 1916.265 914.640, 1923.691 911.684, 1927.171 909.944 C 1930.652 908.204, 1937.213 904.326, 1941.752 901.325 C 1946.291 898.325, 1953.791 892.285, 1958.420 887.904 C 1963.049 883.522, 1969.338 876.671, 1972.395 872.680 C 1975.453 868.688, 1979.998 861.839, 1982.496 857.461 C 1984.994 853.082, 1988.431 845.900, 1990.134 841.500 C 1991.837 837.100, 1994.383 829.225, 1995.791 824 C 1998.141 815.282, 1998.354 812.813, 1998.376 794 C 1998.400 774.079, 1998.310 773.161, 1995.206 761.500 C 1993.118 753.655, 1989.964 745.331, 1986.097 737.460 C 1982.844 730.837, 1977.472 721.764, 1974.160 717.297 C 1970.848 712.830, 1964.767 705.858, 1960.647 701.804 C 1956.526 697.750, 1949.588 691.865, 1945.229 688.727 C 1940.871 685.588, 1933.298 680.976, 1928.402 678.478 C 1923.506 675.979, 1915.434 672.632, 1910.464 671.040 C 1905.494 669.447, 1897.619 667.468, 1892.964 666.641 C 1888.309 665.814, 1880.450 664.932, 1875.500 664.681 C 1870.550 664.430, 1862.675 664.592, 1858 665.041 M 2661.635 765.073 C 2659.724 766.576, 2659 768.067, 2659 770.500 C 2659 772.933, 2659.724 774.424, 2661.635 775.927 C 2664.244 777.979, 2664.965 778, 2734.461 778 L 2804.651 778 2806.826 775.686 C 2808.097 774.333, 2809 772.078, 2809 770.258 C 2809 768.086, 2808.203 766.519, 2806.365 765.073 C 2803.757 763.021, 2803.030 763, 2734 763 C 2664.970 763, 2664.243 763.021, 2661.635 765.073 M 1860.500 773.842 C 1858.300 774.890, 1855.286 777.042, 1853.803 778.624 C 1852.320 780.206, 1850.407 783.173, 1849.553 785.218 C 1848.699 787.263, 1848 791.283, 1848 794.152 C 1848 797.399, 1848.789 800.998, 1850.090 803.685 C 1851.239 806.060, 1853.762 809.307, 1855.696 810.901 C 1857.630 812.495, 1861.190 814.353, 1863.607 815.030 C 1866.023 815.706, 1870.044 816.030, 1872.542 815.748 C 1875.040 815.467, 1879.182 813.939, 1881.747 812.353 C 1885.095 810.283, 1887.227 807.921, 1889.302 803.985 C 1891.844 799.162, 1892.135 797.742, 1891.709 792.220 C 1891.360 787.687, 1890.496 784.836, 1888.604 781.978 C 1887.162 779.800, 1884.124 776.787, 1881.852 775.283 C 1878.603 773.133, 1876.310 772.484, 1871.111 772.243 C 1866.189 772.015, 1863.478 772.423, 1860.500 773.842" stroke="none" fill="#ec4434" fill-rule="evenodd"/><path d="M 1691.500 330.885 C 1683.250 334.093, 1669.300 340.060, 1660.500 344.145 C 1651.700 348.230, 1638.230 355.077, 1630.567 359.360 C 1622.904 363.644, 1610.848 370.828, 1603.776 375.324 C 1596.703 379.821, 1585.310 387.576, 1578.458 392.558 C 1571.606 397.540, 1559.812 406.764, 1552.250 413.056 C 1544.687 419.347, 1531.799 431.021, 1523.609 438.998 C 1515.419 446.974, 1503.562 459.350, 1497.260 466.500 C 1490.957 473.650, 1480.551 486.475, 1474.135 495 C 1467.720 503.525, 1459.149 515.563, 1455.091 521.750 L 1447.711 533 1414.856 533 L 1382 533 1382.021 617.250 L 1382.042 701.500 1379.432 720.500 C 1377.995 730.950, 1376.627 740.513, 1376.391 741.750 L 1375.962 744 1266.981 744 L 1158 744 1158 638.500 L 1158 533 1101.500 533 L 1045 533 1045 793.500 L 1045 1054 1101.500 1054 L 1158 1054 1158 946.500 L 1158 839 1266.902 839 L 1375.804 839 1376.472 845.250 C 1376.839 848.688, 1378.110 857.575, 1379.296 865 C 1381.364 877.959, 1381.463 882.017, 1381.747 966.250 L 1382.042 1054 1414.771 1054.010 L 1447.500 1054.020 1453.764 1063.906 C 1457.209 1069.344, 1464.660 1080.027, 1470.322 1087.647 C 1475.983 1095.266, 1483.996 1105.550, 1488.127 1110.500 C 1492.259 1115.450, 1500.760 1125.078, 1507.020 1131.895 C 1513.280 1138.712, 1524.499 1149.899, 1531.951 1156.755 C 1539.403 1163.610, 1551.800 1174.276, 1559.500 1180.456 C 1567.200 1186.635, 1579.350 1195.796, 1586.500 1200.812 C 1593.650 1205.828, 1606.700 1214.264, 1615.500 1219.558 C 1624.300 1224.853, 1639.375 1233.101, 1649 1237.888 C 1658.625 1242.676, 1672.180 1248.924, 1679.123 1251.774 C 1686.065 1254.624, 1695.312 1258.272, 1699.673 1259.879 L 1707.600 1262.802 1714.877 1241.811 C 1718.879 1230.266, 1722.006 1220.680, 1721.826 1220.509 C 1721.647 1220.338, 1715.875 1218.071, 1709 1215.473 C 1702.125 1212.874, 1689.525 1207.526, 1681 1203.588 C 1672.475 1199.650, 1659.200 1192.916, 1651.500 1188.624 C 1643.800 1184.331, 1630.975 1176.521, 1623 1171.268 C 1615.025 1166.015, 1603.298 1157.753, 1596.939 1152.909 C 1590.581 1148.065, 1580.456 1139.861, 1574.439 1134.679 C 1568.423 1129.497, 1555.842 1117.437, 1546.483 1107.879 C 1537.124 1098.320, 1524.607 1084.425, 1518.667 1077 C 1512.727 1069.575, 1504.185 1058.213, 1499.684 1051.751 C 1495.183 1045.290, 1487.746 1033.815, 1483.157 1026.251 C 1478.568 1018.688, 1470.392 1003.500, 1464.988 992.500 C 1459.583 981.500, 1453.142 967.325, 1450.674 961 C 1448.206 954.675, 1444.559 944.813, 1442.569 939.084 C 1440.580 933.355, 1437.151 922.105, 1434.951 914.084 C 1432.750 906.063, 1429.640 893.200, 1428.040 885.500 C 1426.440 877.800, 1424.225 864.975, 1423.118 857 C 1422.011 849.025, 1420.575 835.818, 1419.926 827.651 C 1419.189 818.370, 1418.945 802.248, 1419.277 784.651 C 1419.586 768.216, 1420.489 750.882, 1421.446 743 C 1422.348 735.575, 1423.767 725.450, 1424.601 720.500 C 1425.435 715.550, 1426.794 708.125, 1427.622 704 C 1428.450 699.875, 1430.692 690.229, 1432.604 682.565 C 1434.516 674.901, 1438.136 662.301, 1440.650 654.565 C 1443.163 646.829, 1447.921 633.750, 1451.224 625.500 C 1454.526 617.250, 1460.842 603.158, 1465.259 594.184 C 1469.677 585.210, 1477.458 570.925, 1482.552 562.440 C 1487.646 553.954, 1495.215 542.171, 1499.374 536.256 C 1503.532 530.340, 1511.013 520.345, 1515.999 514.045 C 1520.984 507.745, 1530.554 496.532, 1537.264 489.128 C 1543.974 481.724, 1555.322 470.278, 1562.482 463.692 C 1569.642 457.106, 1581.350 447.025, 1588.500 441.291 C 1595.650 435.556, 1609.825 425.337, 1620 418.581 C 1630.175 411.826, 1642.100 404.262, 1646.500 401.774 C 1650.900 399.285, 1661.700 393.649, 1670.500 389.248 C 1679.300 384.848, 1693.956 378.267, 1703.068 374.624 C 1712.180 370.981, 1720.168 368, 1720.818 368 C 1721.468 368, 1722.005 367.663, 1722.011 367.250 C 1722.016 366.837, 1718.785 357.163, 1714.830 345.750 C 1710.876 334.337, 1707.383 325.012, 1707.070 325.026 C 1706.756 325.041, 1699.750 327.677, 1691.500 330.885 M 2024.478 345.250 C 2020.640 356.387, 2017.500 365.882, 2017.500 366.350 C 2017.500 366.817, 2022 368.893, 2027.500 370.963 C 2033 373.033, 2042 376.639, 2047.500 378.976 C 2053 381.313, 2064.475 386.751, 2073 391.061 C 2081.525 395.371, 2094.688 402.633, 2102.251 407.199 C 2109.815 411.764, 2121.290 419.183, 2127.751 423.684 C 2134.213 428.185, 2145.350 436.575, 2152.500 442.328 C 2159.650 448.081, 2170.993 457.898, 2177.707 464.144 C 2184.421 470.390, 2194.704 480.675, 2200.558 487 C 2206.411 493.325, 2215.910 504.350, 2221.667 511.500 C 2227.423 518.650, 2235.815 529.787, 2240.316 536.249 C 2244.817 542.710, 2252.236 554.185, 2256.802 561.749 C 2261.368 569.312, 2268.817 582.925, 2273.355 592 C 2277.893 601.075, 2284.014 614.350, 2286.956 621.500 C 2289.899 628.650, 2294.439 640.800, 2297.045 648.500 C 2299.651 656.200, 2303.392 668.350, 2305.358 675.500 C 2307.324 682.650, 2310.496 696.375, 2312.408 706 C 2314.319 715.625, 2316.580 729.125, 2317.432 736 C 2318.284 742.875, 2319.434 754.575, 2319.988 762 C 2320.542 769.425, 2320.996 783.848, 2320.998 794.050 C 2320.999 804.253, 2320.539 818.653, 2319.975 826.050 C 2319.411 833.448, 2318.031 846.249, 2316.909 854.499 C 2315.787 862.748, 2313.758 875.123, 2312.401 881.999 C 2311.044 888.874, 2308.348 900.575, 2306.410 908 C 2304.472 915.425, 2300.449 928.749, 2297.470 937.609 C 2294.492 946.469, 2289.526 959.744, 2286.434 967.109 C 2283.343 974.474, 2277.452 987.250, 2273.342 995.500 C 2269.232 1003.750, 2261.832 1017.250, 2256.897 1025.500 C 2251.962 1033.750, 2244.183 1045.834, 2239.610 1052.353 C 2235.037 1058.872, 2226.617 1070.094, 2220.898 1077.291 C 2215.179 1084.488, 2202.850 1098.228, 2193.500 1107.825 C 2184.150 1117.421, 2172 1129.155, 2166.500 1133.900 C 2161 1138.645, 2153.333 1145.052, 2149.462 1148.137 C 2145.592 1151.222, 2137.554 1157.213, 2131.601 1161.451 C 2125.649 1165.688, 2115.541 1172.433, 2109.139 1176.438 C 2102.738 1180.444, 2091.650 1186.913, 2084.500 1190.813 C 2077.350 1194.714, 2065.650 1200.559, 2058.500 1203.803 C 2051.350 1207.047, 2039.200 1212.109, 2031.500 1215.051 C 2023.800 1217.993, 2017.380 1220.468, 2017.233 1220.550 C 2017.087 1220.633, 2020.122 1229.807, 2023.978 1240.938 C 2027.835 1252.069, 2031.223 1261.552, 2031.508 1262.013 C 2031.793 1262.474, 2035.733 1261.500, 2040.263 1259.849 C 2044.793 1258.198, 2054.009 1254.584, 2060.743 1251.817 C 2067.477 1249.051, 2079.627 1243.536, 2087.743 1239.561 C 2095.859 1235.586, 2107.900 1229.277, 2114.500 1225.541 C 2121.100 1221.804, 2133.475 1214.164, 2142 1208.563 C 2150.525 1202.961, 2162.450 1194.622, 2168.500 1190.031 C 2174.550 1185.439, 2185.125 1176.922, 2192 1171.103 C 2198.875 1165.284, 2211.490 1153.543, 2220.033 1145.012 C 2228.576 1136.480, 2239.998 1124.325, 2245.415 1118 C 2250.831 1111.675, 2260.516 1099.492, 2266.936 1090.928 C 2273.356 1082.363, 2281.690 1070.551, 2285.456 1064.678 L 2292.303 1054 2330.152 1054 L 2368 1054 2368 841 L 2368 628 2459.500 628 L 2551 628 2551 580.500 L 2551 533 2421.558 533 L 2292.115 533 2284.396 521.311 C 2280.151 514.882, 2272.079 503.520, 2266.457 496.061 C 2260.836 488.602, 2251.996 477.550, 2246.814 471.500 C 2241.631 465.450, 2232.109 455.023, 2225.654 448.328 C 2219.199 441.634, 2207.524 430.508, 2199.709 423.605 C 2191.894 416.701, 2180.550 407.205, 2174.500 402.501 C 2168.450 397.797, 2158.100 390.191, 2151.500 385.599 C 2144.900 381.007, 2132.723 373.182, 2124.439 368.209 C 2116.156 363.236, 2102.834 355.832, 2094.836 351.755 C 2086.837 347.678, 2075.390 342.187, 2069.397 339.553 C 2063.404 336.919, 2052.714 332.566, 2045.642 329.882 C 2038.570 327.197, 2032.485 325, 2032.120 325 C 2031.755 325, 2028.316 334.113, 2024.478 345.250 M 1847 444 L 1847 511 1869.500 511 L 1892 511 1892 444 L 1892 377 1869.500 377 L 1847 377 1847 444 M 1679 431.178 C 1675.975 432.864, 1667.112 438.043, 1659.305 442.687 C 1651.497 447.331, 1640.150 454.664, 1634.088 458.981 C 1628.026 463.299, 1618.889 470.194, 1613.783 474.303 C 1608.677 478.412, 1598.997 486.785, 1592.272 492.909 C 1585.547 499.034, 1575.034 509.547, 1568.909 516.272 C 1562.785 522.997, 1554.476 532.598, 1550.444 537.608 C 1546.413 542.617, 1539.769 551.392, 1535.681 557.108 C 1531.593 562.823, 1525.306 572.269, 1521.712 578.097 C 1518.117 583.926, 1513.095 592.543, 1510.552 597.246 L 1505.928 605.797 1525.402 615.899 C 1536.112 621.454, 1545.071 626, 1545.311 626 C 1545.550 626, 1548.323 621.388, 1551.473 615.750 C 1554.624 610.112, 1561.407 599.200, 1566.548 591.500 C 1571.689 583.800, 1579.688 572.775, 1584.324 567 C 1588.960 561.225, 1597.054 551.858, 1602.311 546.184 C 1607.567 540.511, 1616.511 531.567, 1622.184 526.311 C 1627.858 521.054, 1637.225 512.960, 1643 508.324 C 1648.775 503.688, 1659.800 495.685, 1667.500 490.539 C 1675.200 485.394, 1686.450 478.458, 1692.500 475.127 C 1698.550 471.796, 1704.175 468.657, 1705 468.151 C 1706.250 467.384, 1704.877 463.965, 1696.753 447.615 C 1691.393 436.827, 1686.443 428.025, 1685.753 428.056 C 1685.064 428.087, 1682.025 429.492, 1679 431.178 M 2043.023 447.603 C 2037.440 458.385, 2033.014 467.303, 2033.186 467.420 C 2033.359 467.538, 2038.675 470.453, 2045 473.896 C 2051.325 477.340, 2063.475 484.805, 2072 490.484 C 2080.525 496.163, 2092.450 504.769, 2098.500 509.607 C 2104.550 514.445, 2117.423 526.300, 2127.107 535.952 C 2136.791 545.603, 2149.289 559.270, 2154.881 566.323 C 2160.473 573.375, 2169.255 585.525, 2174.396 593.323 C 2179.536 601.120, 2185.580 610.875, 2187.826 615 C 2190.072 619.125, 2192.518 623.330, 2193.261 624.345 C 2194.534 626.084, 2195.751 625.597, 2214.287 615.934 L 2233.961 605.676 2229.799 598.088 C 2227.509 593.915, 2222.811 585.865, 2219.357 580.199 C 2215.904 574.534, 2210.066 565.578, 2206.385 560.298 C 2202.704 555.018, 2195.340 545.254, 2190.022 538.599 C 2184.703 531.945, 2175.365 521.100, 2169.269 514.500 C 2163.174 507.900, 2152.814 497.647, 2146.248 491.716 C 2139.681 485.785, 2130.077 477.548, 2124.904 473.410 C 2119.732 469.273, 2110.200 462.201, 2103.722 457.694 C 2097.244 453.187, 2087.707 446.920, 2082.527 443.766 C 2077.347 440.612, 2068.885 435.775, 2063.722 433.016 C 2058.558 430.257, 2054.072 428, 2053.753 428 C 2053.434 428, 2048.605 436.821, 2043.023 447.603 M 725.500 522.594 C 722.750 522.805, 715.325 523.459, 709 524.048 C 702.675 524.638, 690.908 526.432, 682.851 528.036 C 674.794 529.641, 662.644 532.763, 655.851 534.975 C 649.058 537.187, 637.200 542.144, 629.500 545.991 C 621.800 549.839, 611.317 555.991, 606.204 559.663 C 601.091 563.335, 593.441 569.755, 589.204 573.929 C 584.967 578.103, 579.123 584.665, 576.218 588.509 C 573.313 592.354, 568.483 600.357, 565.486 606.294 C 562.489 612.231, 558.926 620.781, 557.567 625.294 C 556.208 629.807, 554.303 637.550, 553.334 642.500 C 552.022 649.201, 551.576 656.354, 551.592 670.500 C 551.607 684.380, 552.082 691.925, 553.354 698.500 C 554.313 703.450, 556.184 711.100, 557.513 715.500 C 558.842 719.900, 561.693 727.100, 563.849 731.500 C 566.005 735.900, 570.004 742.650, 572.736 746.500 C 575.468 750.350, 581.030 756.826, 585.097 760.892 C 589.163 764.957, 596.018 770.969, 600.330 774.251 C 604.642 777.534, 612.745 783.121, 618.335 786.668 C 623.926 790.215, 635.025 796.410, 643 800.436 C 650.975 804.463, 665.375 810.917, 675 814.779 C 684.625 818.641, 698.350 823.920, 705.500 826.510 C 712.650 829.100, 730.003 835.174, 744.062 840.008 C 758.121 844.842, 773.560 850.427, 778.371 852.418 C 783.182 854.410, 791.254 858.116, 796.309 860.654 C 801.364 863.192, 807.975 866.950, 811 869.006 C 814.025 871.062, 818.532 874.939, 821.016 877.622 C 823.499 880.305, 826.985 884.786, 828.761 887.581 C 830.538 890.375, 832.886 895.261, 833.979 898.438 C 835.072 901.616, 836.255 907.034, 836.608 910.480 C 836.969 914, 836.732 919.757, 836.067 923.622 C 835.416 927.405, 833.804 932.874, 832.485 935.776 C 831.166 938.678, 828.611 943.107, 826.807 945.619 C 825.004 948.130, 820.822 952.237, 817.514 954.745 C 814.206 957.252, 807.768 961.067, 803.206 963.221 C 798.644 965.375, 790.586 968.235, 785.299 969.576 C 780.013 970.917, 770.395 972.497, 763.928 973.087 C 755.446 973.861, 749.080 973.852, 741.088 973.053 C 734.994 972.444, 725.843 970.862, 720.754 969.538 C 715.664 968.214, 708.319 965.775, 704.431 964.119 C 700.543 962.463, 694.018 959.198, 689.931 956.864 C 685.522 954.346, 679.428 949.545, 674.948 945.060 C 669.521 939.628, 666.218 935.213, 663.213 929.376 C 660.912 924.908, 658.126 917.483, 657.022 912.876 C 655.918 908.269, 655.011 903.263, 655.007 901.750 L 655 899 597.500 899 C 543.397 899, 540.001 899.103, 540.020 900.750 C 540.030 901.712, 540.676 907.286, 541.455 913.136 C 542.234 918.986, 543.769 927.536, 544.866 932.136 C 545.963 936.736, 548.294 944.550, 550.046 949.500 C 551.797 954.450, 554.802 961.650, 556.724 965.500 C 558.645 969.350, 562.604 976.100, 565.521 980.500 C 568.438 984.900, 573.725 991.835, 577.271 995.911 C 580.817 999.987, 587.269 1006.428, 591.609 1010.225 C 595.949 1014.021, 604.450 1020.442, 610.500 1024.494 C 616.550 1028.546, 626.322 1034.328, 632.215 1037.343 C 638.109 1040.358, 647.559 1044.612, 653.215 1046.797 C 658.872 1048.982, 668.450 1052.159, 674.500 1053.858 C 680.550 1055.556, 690 1057.841, 695.500 1058.936 C 701 1060.030, 712.475 1061.664, 721 1062.567 C 732.857 1063.824, 742.140 1064.085, 760.500 1063.679 C 777.144 1063.311, 788.532 1062.531, 797.656 1061.134 C 804.892 1060.026, 814.792 1058.180, 819.656 1057.031 C 824.520 1055.883, 832.261 1053.802, 836.857 1052.407 C 841.453 1051.012, 849.936 1047.854, 855.707 1045.389 C 861.479 1042.923, 870.280 1038.607, 875.266 1035.796 C 880.252 1032.985, 888.645 1027.434, 893.916 1023.461 C 899.187 1019.487, 907.354 1012.235, 912.064 1007.345 C 916.775 1002.456, 922.944 995.157, 925.774 991.127 C 928.605 987.097, 932.920 979.682, 935.364 974.650 C 937.808 969.617, 940.972 961.900, 942.395 957.500 C 943.819 953.100, 945.656 946.239, 946.477 942.253 C 947.299 938.267, 948.471 929.717, 949.082 923.253 C 949.713 916.575, 949.898 906.750, 949.512 900.500 C 949.138 894.450, 948.181 885.675, 947.384 881 C 946.587 876.325, 944.781 868.675, 943.371 864 C 941.961 859.325, 938.449 850.526, 935.566 844.446 C 932.684 838.366, 927.932 829.816, 925.007 825.446 C 922.082 821.076, 916.043 813.876, 911.586 809.446 C 907.042 804.930, 898.656 798.203, 892.492 794.131 C 886.446 790.138, 874.021 783.129, 864.880 778.556 C 855.738 773.984, 841.113 767.440, 832.380 764.015 C 823.646 760.590, 796.925 751.272, 773 743.309 C 749.075 735.346, 723.875 726.616, 717 723.909 C 710.125 721.202, 701.479 717.303, 697.787 715.244 C 694.095 713.185, 687.236 708.463, 682.547 704.750 C 677.857 701.038, 672.468 695.863, 670.572 693.250 C 668.676 690.638, 666.432 686.025, 665.587 683 C 664.741 679.975, 663.771 674.350, 663.431 670.500 C 663.012 665.750, 663.323 661.097, 664.400 656.024 C 665.273 651.912, 667.181 646.106, 668.641 643.121 C 670.102 640.137, 673.930 635.102, 677.149 631.933 C 681.362 627.784, 685.871 624.747, 693.251 621.085 C 698.888 618.287, 708 614.793, 713.500 613.318 C 722.642 610.868, 725.131 610.634, 742.500 610.591 C 757.365 610.555, 762.991 610.923, 768.353 612.282 C 772.123 613.237, 778.198 615.202, 781.853 616.647 C 785.509 618.093, 791.650 621.082, 795.500 623.290 C 799.674 625.684, 805.734 630.574, 810.509 635.402 C 816.319 641.276, 819.540 645.560, 822.236 651 C 824.281 655.125, 826.854 661.875, 827.953 666 C 829.053 670.125, 830.197 674.737, 830.495 676.250 L 831.038 679 886.648 679 L 942.258 679 941.555 670.750 C 941.168 666.212, 939.947 657.775, 938.841 652 C 937.736 646.225, 935.475 637.265, 933.818 632.090 C 932.160 626.914, 929.280 619.336, 927.418 615.250 C 925.556 611.164, 921.050 603.249, 917.405 597.661 C 912.964 590.852, 907.268 584.019, 900.139 576.949 C 893.363 570.229, 885.506 563.728, 878.500 559.046 C 872.450 555.003, 861.746 548.886, 854.712 545.452 C 847.679 542.019, 836.429 537.397, 829.712 535.181 C 822.996 532.965, 812.325 530.009, 806 528.612 C 799.675 527.214, 788.875 525.369, 782 524.510 C 775.125 523.652, 760.725 522.783, 750 522.580 C 739.275 522.377, 728.250 522.383, 725.500 522.594 M 2642 639.361 L 2642 745.721 2636.750 746.352 C 2633.863 746.699, 2618.563 746.987, 2602.750 746.991 L 2574 747 2574 758 L 2574 769 2600.500 769 L 2627 769 2627 801.313 L 2627 833.626 2629.924 836.427 C 2631.958 838.376, 2634.240 839.385, 2637.424 839.744 L 2642 840.260 2642 947.130 L 2642 1054 2831.629 1054 L 3021.258 1054 3020.546 1045.835 C 3020.154 1041.344, 3018.971 1034.257, 3017.916 1030.085 C 3016.861 1025.913, 3013.818 1018, 3011.154 1012.500 C 3008.490 1007, 3003.549 999.030, 3000.175 994.790 C 2996.800 990.549, 2990.768 984.378, 2986.769 981.076 C 2982.771 977.774, 2975.126 972.784, 2969.780 969.986 C 2964.298 967.118, 2955.796 963.729, 2950.280 962.214 L 2940.500 959.528 2847.750 959.229 L 2755 958.931 2755 899.466 L 2755 840 2793.250 839.996 C 2829.399 839.993, 2831.676 839.885, 2834.696 838.044 C 2836.807 836.756, 2838.268 834.808, 2839.004 832.298 C 2839.760 829.718, 2840.018 816.428, 2839.808 790.854 C 2839.513 754.855, 2839.412 753.110, 2837.500 750.966 C 2836.400 749.733, 2834.052 748.111, 2832.282 747.362 C 2829.762 746.295, 2821.040 746, 2792.032 746 L 2755 746 2755 687.040 L 2755 628.081 2844.250 627.739 C 2924.189 627.433, 2934.153 627.222, 2939.755 625.709 C 2943.196 624.781, 2949.590 622.640, 2953.964 620.954 C 2958.338 619.267, 2965.403 615.611, 2969.663 612.830 C 2973.924 610.049, 2980.287 605.012, 2983.804 601.637 C 2987.322 598.261, 2992.231 592.800, 2994.714 589.500 C 2997.197 586.200, 3000.975 580.027, 3003.109 575.782 C 3005.244 571.537, 3008.145 564.112, 3009.557 559.282 C 3010.968 554.452, 3012.387 546.563, 3012.709 541.750 L 3013.296 533 2827.648 533 L 2642 533 2642 639.361 M 3130 793.500 L 3130 1054 3184 1054 L 3238 1054 3238 837.437 L 3238 620.874 3305.750 621.267 C 3362.921 621.599, 3374.519 621.905, 3380.024 623.231 C 3383.613 624.094, 3390.138 626.189, 3394.524 627.885 C 3398.911 629.581, 3405.425 632.861, 3409 635.173 C 3412.575 637.486, 3419.365 643.230, 3424.088 647.939 C 3429.065 652.900, 3434.403 659.444, 3436.781 663.500 C 3439.038 667.350, 3442.102 674.100, 3443.589 678.500 C 3445.811 685.073, 3446.379 688.843, 3446.773 699.633 C 3447.141 709.702, 3446.856 714.601, 3445.549 720.633 C 3444.612 724.960, 3441.882 732.550, 3439.481 737.500 C 3437.081 742.450, 3432.843 749.247, 3430.063 752.605 C 3427.283 755.962, 3421.826 761.245, 3417.936 764.344 C 3414.046 767.443, 3408.024 771.566, 3404.553 773.508 C 3401.082 775.449, 3394.925 778.168, 3390.871 779.551 C 3386.817 780.933, 3379.729 782.725, 3375.119 783.532 C 3369.200 784.569, 3359.138 785, 3340.869 785 L 3315 785 3315 827.469 L 3315 869.938 3326.936 870.219 L 3338.873 870.500 3398.294 962 L 3457.716 1053.500 3518.858 1053.758 C 3552.486 1053.899, 3580 1053.762, 3580 1053.452 C 3580 1053.143, 3552.029 1012.302, 3517.842 962.695 C 3483.654 913.088, 3453.678 869.671, 3451.228 866.214 L 3446.773 859.928 3451.137 858.254 C 3453.536 857.334, 3460.225 854.228, 3466 851.352 C 3471.775 848.476, 3479.650 844.015, 3483.500 841.438 C 3487.350 838.861, 3493.498 834.314, 3497.163 831.334 C 3500.828 828.354, 3507.039 822.533, 3510.965 818.400 C 3514.891 814.267, 3520.998 806.974, 3524.535 802.193 C 3528.073 797.412, 3533.660 788.293, 3536.952 781.928 C 3540.243 775.564, 3544.500 765.664, 3546.412 759.928 C 3548.323 754.193, 3550.909 744.775, 3552.159 739 C 3554.186 729.627, 3554.431 725.762, 3554.433 703 C 3554.436 679.090, 3554.268 676.714, 3551.742 664.898 C 3550.261 657.968, 3547.670 648.392, 3545.986 643.619 C 3544.301 638.847, 3541.440 631.692, 3539.628 627.721 C 3537.816 623.749, 3533.821 616.450, 3530.750 611.500 C 3527.680 606.550, 3521.461 598.065, 3516.929 592.645 C 3512.398 587.224, 3504.598 579.205, 3499.595 574.823 C 3494.593 570.441, 3486.474 564.149, 3481.553 560.840 C 3476.633 557.532, 3469.099 553.061, 3464.811 550.905 C 3460.524 548.749, 3453.593 545.626, 3449.409 543.964 C 3445.225 542.302, 3437.522 539.830, 3432.291 538.471 C 3427.059 537.112, 3417.631 535.325, 3411.338 534.500 C 3401.657 533.231, 3379.141 533, 3264.949 533 L 3130 533 3130 793.500 M 1851 537.014 C 1844.675 537.479, 1834.011 538.798, 1827.303 539.944 C 1820.595 541.091, 1810.920 543.119, 1805.803 544.451 C 1800.686 545.783, 1792 548.411, 1786.500 550.292 C 1781 552.172, 1773.125 555.151, 1769 556.910 C 1764.875 558.670, 1756.325 562.818, 1750 566.128 C 1743.675 569.437, 1733.550 575.452, 1727.500 579.495 C 1721.450 583.537, 1712.676 589.917, 1708.001 593.672 C 1703.327 597.428, 1694.523 605.450, 1688.438 611.500 C 1682.352 617.550, 1673.607 627.225, 1669.006 633 C 1664.404 638.775, 1657.543 648.225, 1653.759 654 C 1649.975 659.775, 1643.310 671.700, 1638.947 680.500 C 1633.878 690.724, 1629.054 702.457, 1625.586 713 C 1622.600 722.075, 1619.030 735.350, 1617.652 742.500 C 1616.275 749.650, 1614.594 760, 1613.916 765.500 C 1613.239 771, 1612.700 784.050, 1612.719 794.500 C 1612.740 806.315, 1613.380 818.227, 1614.411 826 C 1615.324 832.875, 1617.220 843.675, 1618.626 850 C 1620.032 856.325, 1622.755 866.390, 1624.678 872.366 C 1626.602 878.342, 1630.177 888.011, 1632.625 893.852 C 1635.072 899.693, 1639.353 908.754, 1642.138 913.986 C 1644.924 919.219, 1650.451 928.450, 1654.421 934.500 C 1658.390 940.550, 1665.266 950, 1669.700 955.500 C 1674.134 961, 1683.778 971.358, 1691.131 978.517 C 1698.484 985.677, 1709.018 994.929, 1714.540 999.077 C 1720.062 1003.225, 1728.837 1009.255, 1734.040 1012.478 C 1739.243 1015.700, 1748.109 1020.703, 1753.742 1023.595 C 1759.376 1026.487, 1769.951 1031.180, 1777.242 1034.024 C 1784.534 1036.868, 1797.250 1040.920, 1805.500 1043.027 C 1813.750 1045.134, 1825.675 1047.677, 1832 1048.679 C 1841.101 1050.120, 1849.133 1050.493, 1870.500 1050.466 C 1893.841 1050.437, 1899.248 1050.129, 1910.403 1048.195 C 1917.499 1046.964, 1927.634 1044.860, 1932.924 1043.519 C 1938.214 1042.178, 1947.933 1039.231, 1954.521 1036.969 C 1961.110 1034.707, 1972.800 1029.819, 1980.500 1026.107 C 1988.200 1022.395, 1998.775 1016.752, 2004 1013.566 C 2009.225 1010.381, 2018.675 1003.912, 2025 999.192 C 2031.572 994.287, 2042.951 984.158, 2051.555 975.555 C 2060.158 966.951, 2070.287 955.572, 2075.192 949 C 2079.912 942.675, 2086.381 933.225, 2089.566 928 C 2092.752 922.775, 2098.397 912.200, 2102.112 904.500 C 2105.827 896.800, 2110.859 884.650, 2113.295 877.500 C 2115.731 870.350, 2118.899 859.550, 2120.334 853.500 C 2121.770 847.450, 2123.665 838, 2124.545 832.500 C 2125.425 827, 2126.396 813.003, 2126.702 801.395 C 2127.051 788.160, 2126.814 775.855, 2126.067 768.395 C 2125.412 761.853, 2123.756 750.875, 2122.388 744 C 2121.020 737.125, 2118.528 726.775, 2116.851 721 C 2115.174 715.225, 2112.225 706.450, 2110.299 701.500 C 2108.373 696.550, 2103.899 686.590, 2100.358 679.366 C 2096.816 672.142, 2090.422 660.892, 2086.147 654.366 C 2081.872 647.840, 2074.744 638, 2070.306 632.500 C 2065.868 627, 2057.571 617.834, 2051.868 612.132 C 2046.166 606.429, 2037 598.135, 2031.500 593.701 C 2026 589.267, 2016.550 582.390, 2010.500 578.421 C 2004.450 574.451, 1995.219 568.924, 1989.986 566.138 C 1984.754 563.353, 1975.693 559.072, 1969.852 556.625 C 1964.011 554.177, 1954.342 550.602, 1948.366 548.678 C 1942.390 546.755, 1932.325 544.033, 1926 542.628 C 1919.675 541.224, 1909.325 539.413, 1903 538.605 C 1896.675 537.797, 1884.975 536.918, 1877 536.652 C 1869.025 536.386, 1857.325 536.548, 1851 537.014 M 1851.675 629.986 C 1847.921 630.461, 1841.228 631.583, 1836.800 632.480 C 1832.373 633.377, 1825.123 635.257, 1820.690 636.658 C 1816.257 638.058, 1808.632 640.938, 1803.745 643.057 C 1798.859 645.177, 1790.955 649.254, 1786.181 652.119 C 1781.406 654.984, 1773.901 660.059, 1769.502 663.398 C 1765.103 666.736, 1757.896 673.076, 1753.486 677.486 C 1749.076 681.896, 1742.736 689.103, 1739.398 693.502 C 1736.059 697.901, 1730.936 705.485, 1728.014 710.355 C 1725.091 715.226, 1720.769 723.776, 1718.410 729.355 C 1716.050 734.935, 1712.984 743.432, 1711.595 748.238 C 1710.207 753.044, 1708.372 760.919, 1707.516 765.738 C 1706.661 770.557, 1705.683 780.125, 1705.342 787 C 1704.968 794.552, 1705.200 803.657, 1705.928 810 C 1706.590 815.775, 1707.983 824.440, 1709.023 829.256 C 1710.063 834.072, 1712.330 842.172, 1714.060 847.256 C 1715.790 852.340, 1720.105 862.160, 1723.648 869.079 C 1727.191 875.997, 1733.254 885.897, 1737.122 891.079 C 1740.989 896.260, 1747.831 904.252, 1752.326 908.838 C 1756.822 913.424, 1764.100 920.004, 1768.500 923.460 C 1772.900 926.916, 1779.536 931.595, 1783.247 933.859 C 1786.957 936.122, 1793.520 939.748, 1797.831 941.915 C 1802.142 944.082, 1810.172 947.423, 1815.676 949.339 C 1821.180 951.255, 1830.002 953.758, 1835.281 954.902 C 1840.559 956.045, 1850.193 957.458, 1856.689 958.041 C 1863.185 958.624, 1872.775 958.808, 1878 958.451 C 1883.225 958.094, 1892.460 956.972, 1898.522 955.957 C 1904.583 954.942, 1914.483 952.510, 1920.522 950.552 C 1926.560 948.595, 1936.900 944.283, 1943.500 940.970 C 1950.100 937.658, 1959.744 931.922, 1964.932 928.224 C 1970.119 924.526, 1978.156 917.917, 1982.791 913.538 C 1987.426 909.159, 1993.806 902.409, 1996.969 898.538 C 2000.132 894.667, 2005.287 887.561, 2008.424 882.748 C 2011.562 877.934, 2016.122 869.789, 2018.557 864.648 C 2020.992 859.507, 2024.589 850.405, 2026.549 844.422 C 2028.508 838.439, 2030.945 828.583, 2031.963 822.522 C 2032.981 816.460, 2034.110 807, 2034.473 801.500 C 2034.836 796, 2034.636 786.355, 2034.030 780.067 C 2033.424 773.778, 2032.004 764.369, 2030.875 759.158 C 2029.746 753.947, 2027.249 745.142, 2025.325 739.592 C 2023.401 734.041, 2019.133 724.272, 2015.840 717.883 C 2012.547 711.493, 2006.343 701.593, 2002.054 695.883 C 1997.765 690.172, 1989.324 680.738, 1983.297 674.917 C 1977.185 669.014, 1967.951 661.417, 1962.419 657.739 C 1956.964 654.112, 1947.913 648.851, 1942.307 646.049 C 1936.700 643.247, 1927.421 639.417, 1921.685 637.538 C 1915.950 635.659, 1906.362 633.162, 1900.379 631.990 C 1893.085 630.560, 1884.392 629.736, 1874 629.490 C 1865.475 629.287, 1855.429 629.510, 1851.675 629.986 M 2856 792.988 L 2856 829 2859.355 829 C 2861.200 829, 2868.463 828.533, 2875.495 827.962 C 2882.527 827.391, 2894.405 825.793, 2901.890 824.411 C 2909.376 823.029, 2919.425 820.584, 2924.223 818.978 C 2929.020 817.371, 2935.545 814.736, 2938.723 813.122 C 2941.900 811.508, 2946.427 808.782, 2948.783 807.064 C 2951.139 805.345, 2953.950 802.491, 2955.029 800.720 C 2956.135 798.906, 2956.994 795.708, 2956.996 793.398 C 2956.999 790.782, 2956.176 788.073, 2954.726 785.922 C 2953.476 784.066, 2950.354 780.962, 2947.788 779.024 C 2945.223 777.086, 2938.709 773.599, 2933.312 771.276 C 2927.915 768.953, 2920.125 766.146, 2916 765.038 C 2911.875 763.931, 2902.650 762.136, 2895.500 761.051 C 2888.350 759.966, 2878.225 758.819, 2873 758.501 C 2867.775 758.183, 2861.813 757.710, 2859.750 757.450 L 2856 756.976 2856 792.988 M 2661.635 765.073 C 2659.724 766.576, 2659 768.067, 2659 770.500 C 2659 772.933, 2659.724 774.424, 2661.635 775.927 C 2664.244 777.979, 2664.965 778, 2734.461 778 L 2804.651 778 2806.826 775.686 C 2808.097 774.333, 2809 772.078, 2809 770.258 C 2809 768.086, 2808.203 766.519, 2806.365 765.073 C 2803.757 763.021, 2803.030 763, 2734 763 C 2664.970 763, 2664.243 763.021, 2661.635 765.073 M 1453 793.500 L 1453 816 1520 816 L 1587 816 1587 793.500 L 1587 771 1520 771 L 1453 771 1453 793.500 M 2153 793.500 L 2153 816 2220 816 L 2287 816 2287 793.500 L 2287 771 2220 771 L 2153 771 2153 793.500 M 1860.500 773.842 C 1858.300 774.890, 1855.286 777.042, 1853.803 778.624 C 1852.320 780.206, 1850.407 783.173, 1849.553 785.218 C 1848.699 787.263, 1848 791.283, 1848 794.152 C 1848 797.399, 1848.789 800.998, 1850.090 803.685 C 1851.239 806.060, 1853.762 809.307, 1855.696 810.901 C 1857.630 812.495, 1861.190 814.353, 1863.607 815.030 C 1866.023 815.706, 1870.044 816.030, 1872.542 815.748 C 1875.040 815.467, 1879.182 813.939, 1881.747 812.353 C 1885.095 810.283, 1887.227 807.921, 1889.302 803.985 C 1891.844 799.162, 1892.135 797.742, 1891.709 792.220 C 1891.360 787.687, 1890.496 784.836, 1888.604 781.978 C 1887.162 779.800, 1884.124 776.787, 1881.852 775.283 C 1878.603 773.133, 1876.310 772.484, 1871.111 772.243 C 1866.189 772.015, 1863.478 772.423, 1860.500 773.842 M 2522 792 L 2522 803 2567 803 L 2612 803 2612 792 L 2612 781 2567 781 L 2522 781 2522 792 M 2413 825 L 2413 836 2507.500 836 L 2602 836 2602 825 L 2602 814 2507.500 814 L 2413 814 2413 825 M 1520.284 962.670 L 1501.069 972.177 1505.602 981.204 C 1508.096 986.169, 1513.666 996.142, 1517.981 1003.365 C 1522.296 1010.589, 1528.961 1021.014, 1532.794 1026.531 C 1536.626 1032.048, 1543.659 1041.480, 1548.424 1047.490 C 1553.188 1053.501, 1562.290 1064.156, 1568.652 1071.167 C 1575.013 1078.179, 1585.681 1088.856, 1592.359 1094.894 C 1599.037 1100.932, 1608.774 1109.336, 1613.999 1113.568 C 1619.223 1117.801, 1627.773 1124.314, 1632.999 1128.042 C 1638.224 1131.770, 1647.900 1138.166, 1654.500 1142.257 C 1661.100 1146.348, 1670.815 1152.014, 1676.090 1154.847 C 1681.364 1157.681, 1685.975 1160, 1686.335 1160 C 1686.696 1160, 1691.447 1151.096, 1696.893 1140.214 L 1706.796 1120.427 1699.648 1116.571 C 1695.717 1114.450, 1687.775 1109.893, 1682 1106.444 C 1676.225 1102.995, 1666.468 1096.647, 1660.317 1092.337 C 1654.167 1088.026, 1643.367 1079.708, 1636.317 1073.852 C 1629.268 1067.996, 1617.177 1056.746, 1609.450 1048.852 C 1601.722 1040.958, 1590.920 1028.875, 1585.445 1022 C 1579.970 1015.125, 1571.841 1004.100, 1567.380 997.500 C 1562.919 990.900, 1556.556 980.775, 1553.239 975 C 1549.922 969.225, 1545.943 961.913, 1544.396 958.750 C 1542.849 955.587, 1541.115 953.037, 1540.542 953.082 C 1539.969 953.127, 1530.853 957.442, 1520.284 962.670 M 2193.105 962.750 C 2190.403 968.112, 2185.275 977.294, 2181.710 983.153 C 2178.144 989.012, 2172.029 998.318, 2168.119 1003.832 C 2164.210 1009.346, 2156.873 1018.952, 2151.815 1025.179 C 2146.757 1031.405, 2135.842 1043.272, 2127.560 1051.548 C 2119.277 1059.824, 2107.775 1070.450, 2102 1075.161 C 2096.225 1079.872, 2087.450 1086.636, 2082.500 1090.192 C 2077.550 1093.748, 2069.086 1099.462, 2063.690 1102.890 C 2058.295 1106.317, 2049.196 1111.601, 2043.471 1114.631 L 2033.061 1120.141 2043.035 1140.070 C 2048.521 1151.032, 2053.289 1160, 2053.632 1160 C 2053.974 1160, 2057.684 1158.134, 2061.877 1155.853 C 2066.070 1153.572, 2073.325 1149.443, 2078 1146.679 C 2082.675 1143.914, 2092.350 1137.716, 2099.500 1132.904 C 2106.650 1128.093, 2118.575 1119.313, 2126 1113.394 C 2133.425 1107.474, 2148.305 1093.827, 2159.066 1083.066 C 2169.827 1072.305, 2183.473 1057.425, 2189.390 1050 C 2195.307 1042.575, 2203.657 1031.325, 2207.947 1025 C 2212.237 1018.675, 2218.200 1009.450, 2221.200 1004.500 C 2224.199 999.550, 2229.428 990.290, 2232.818 983.922 L 2238.983 972.343 2219.199 962.672 C 2208.317 957.352, 2199.100 953, 2198.716 953 C 2198.332 953, 2195.807 957.388, 2193.105 962.750 M 1847 1144 L 1847 1211 1869.500 1211 L 1892 1211 1892 1144 L 1892 1077 1869.500 1077 L 1847 1077 1847 1144" stroke="none" fill="#fbfbfb" fill-rule="evenodd"/></svg>